<?xml version="1.0" encoding="UTF-8"?>
<svg version="1.1" xmlns="http://www.w3.org/2000/svg" width="48" height="48">
<path d="M0 0 C1.65 0 3.3 0 5 0 C5 4.62 5 9.24 5 14 C7.31 14 9.62 14 12 14 C12 9.38 12 4.76 12 0 C13.918125 -0.0825 15.83625 -0.165 17.8125 -0.25 C19.43091797 -0.31960938 19.43091797 -0.31960938 21.08203125 -0.390625 C24 0 24 0 25.8671875 1.6328125 C27.29648227 4.61954572 27.36523911 6.8227201 27.3125 10.125 C27.30863281 11.17945313 27.30476563 12.23390625 27.30078125 13.3203125 C27 16 27 16 25 18 C21.98230366 19.0298681 19.1869617 19.11699367 16.015625 19.09765625 C15.08105469 19.09443359 14.14648438 19.09121094 13.18359375 19.08789062 C11.73146484 19.07532227 11.73146484 19.07532227 10.25 19.0625 C9.26644531 19.05798828 8.28289063 19.05347656 7.26953125 19.04882812 C4.84632806 19.037065 2.42315623 19.01913018 0 19 C0 12.73 0 6.46 0 0 Z M18 5 C18 5.66 18 6.32 18 7 C18.99 6.67 19.98 6.34 21 6 C20.01 5.67 19.02 5.34 18 5 Z M18 12 C18 12.66 18 13.32 18 14 C18.99 14 19.98 14 21 14 C21 13.34 21 12.68 21 12 C20.01 12 19.02 12 18 12 Z " fill="#0FBFDD" transform="translate(12,15)"/>
<path d="M0 0 C6.21314862 3.39964736 10.08037392 8.11612175 12.3125 14.8125 C12.78914274 21.96214112 11.78531039 26.94924587 6.9375 32.5625 C1.73967236 37.01778083 -2.62010302 39.14205334 -9.56640625 39.02734375 C-15.69669154 38.40641246 -19.78805904 35.36184779 -23.6875 30.8125 C-27.17472485 25.58166272 -28.32347779 21.09133532 -27.6875 14.8125 C-25.36322094 7.59500186 -21.34816026 3.31811066 -14.6875 -0.1875 C-9.46829895 -1.92723368 -5.14359457 -1.65641181 0 0 Z M-23.6875 9.5 C-26.28781196 14.1964818 -26.70446366 18.56930209 -25.6875 23.8125 C-23.59906388 29.3018298 -20.04385535 33.12720156 -14.92578125 35.9609375 C-10.02395539 37.82585554 -5.35104461 37.82585554 -0.44921875 35.9609375 C4.66885535 33.12720156 8.22406388 29.3018298 10.3125 23.8125 C11.32946366 18.56930209 10.91281196 14.1964818 8.3125 9.5 C4.83081818 4.6919632 0.75370342 1.47995122 -5.14453125 0.3359375 C-13.24235999 -0.13674682 -18.96621617 2.98013186 -23.6875 9.5 Z " fill="#131A1C" transform="translate(31.6875,5.1875)"/>
<path d="M0 0 C1.65 0 3.3 0 5 0 C5 4.62 5 9.24 5 14 C7.31 14 9.62 14 12 14 C12 15.65 12 17.3 12 19 C8.04 19 4.08 19 0 19 C0 12.73 0 6.46 0 0 Z " fill="#6D6D6D" transform="translate(12,15)"/>
<path d="M0 0 C-0.59167969 0.268125 -1.18335938 0.53625 -1.79296875 0.8125 C-7.75483154 3.76911711 -11.4697964 6.73745986 -14 13 C-14.61877014 15.73096297 -14.84931237 18.18716417 -15 21 C-15.66 21 -16.32 21 -17 21 C-17.41873894 14.16059732 -16.14183246 9.48001653 -11.625 4.25 C-4.9015544 -1.51295337 -4.9015544 -1.51295337 0 0 Z " fill="#1C2022" transform="translate(21,6)"/>
<path d="M0 0 C7.16303426 -0.3770018 12.11295165 0.50664006 17.75 5.375 C19.83974686 7.81303801 21.47085026 10.18314521 23 13 C22.34 13.66 21.68 14.32 21 15 C20.72027344 14.46890625 20.44054687 13.9378125 20.15234375 13.390625 C17.26898665 8.30998291 14.61663225 4.96409839 9 3 C6.33732414 2.53011603 3.69230434 2.27851424 1 2 C0.67 1.34 0.34 0.68 0 0 Z " fill="#040505" transform="translate(20,4)"/>
<path d="M0 0 C0.66 0 1.32 0 2 0 C2.38478516 0.87011719 2.38478516 0.87011719 2.77734375 1.7578125 C5.9704876 8.27311611 9.70060346 11.50033526 16 15 C13 16 13 16 9.5625 14.375 C4.96975656 11.53602568 2.27321761 8.39795471 0.75 3.1875 C0.5025 2.135625 0.255 1.08375 0 0 Z " fill="#050607" transform="translate(4,27)"/>
<path d="M0 0 C-1.28650706 0.69710731 -2.57940665 1.38242876 -3.875 2.0625 C-4.95394531 2.63677734 -4.95394531 2.63677734 -6.0546875 3.22265625 C-6.69664063 3.47917969 -7.33859375 3.73570313 -8 4 C-8.66 3.67 -9.32 3.34 -10 3 C-6.81859267 -0.48439851 -4.56758339 -1.41752588 0 0 Z " fill="#101415" transform="translate(21,6)"/>
</svg>
